<mxfile host="app.diagrams.net" modified="2024-05-05T01:45:21.601Z" agent="Mozilla/5.0 (Windows NT 10.0; Win64; x64) AppleWebKit/537.36 (KHTML, like Gecko) Chrome/124.0.0.0 Safari/537.36" etag="aQxW6IvwnOoSdK51DRvP" version="24.3.1" type="github">
  <diagram id="C5RBs43oDa-KdzZeNtuy" name="Page-1">
    <mxGraphModel dx="700" dy="348" grid="1" gridSize="10" guides="1" tooltips="1" connect="1" arrows="1" fold="1" page="1" pageScale="1" pageWidth="827" pageHeight="1169" math="0" shadow="0">
      <root>
        <mxCell id="WIyWlLk6GJQsqaUBKTNV-0" />
        <mxCell id="WIyWlLk6GJQsqaUBKTNV-1" parent="WIyWlLk6GJQsqaUBKTNV-0" />
        <mxCell id="ntL26I1QKMjrGdttYEMc-0" value="&lt;font style=&quot;font-size: 14px;&quot;&gt;Inicio&lt;/font&gt;" style="rounded=1;whiteSpace=wrap;html=1;fillColor=#f8cecc;strokeColor=#b85450;" vertex="1" parent="WIyWlLk6GJQsqaUBKTNV-1">
          <mxGeometry x="320" y="240" width="120" height="60" as="geometry" />
        </mxCell>
        <mxCell id="ntL26I1QKMjrGdttYEMc-1" value="" style="endArrow=classic;html=1;rounded=0;" edge="1" parent="WIyWlLk6GJQsqaUBKTNV-1">
          <mxGeometry width="50" height="50" relative="1" as="geometry">
            <mxPoint x="380" y="300" as="sourcePoint" />
            <mxPoint x="380" y="350" as="targetPoint" />
            <Array as="points">
              <mxPoint x="379.5" y="300" />
            </Array>
          </mxGeometry>
        </mxCell>
        <mxCell id="ntL26I1QKMjrGdttYEMc-3" style="edgeStyle=orthogonalEdgeStyle;rounded=0;orthogonalLoop=1;jettySize=auto;html=1;" edge="1" parent="WIyWlLk6GJQsqaUBKTNV-1" source="ntL26I1QKMjrGdttYEMc-2">
          <mxGeometry relative="1" as="geometry">
            <mxPoint x="380" y="460" as="targetPoint" />
          </mxGeometry>
        </mxCell>
        <mxCell id="ntL26I1QKMjrGdttYEMc-2" value="&lt;font style=&quot;font-size: 10px;&quot;&gt;Ingrese Nro de horas trabajadas en la semana&lt;/font&gt;" style="shape=parallelogram;perimeter=parallelogramPerimeter;whiteSpace=wrap;html=1;fixedSize=1;fillColor=#d0cee2;strokeColor=#56517e;" vertex="1" parent="WIyWlLk6GJQsqaUBKTNV-1">
          <mxGeometry x="320" y="350" width="120" height="60" as="geometry" />
        </mxCell>
        <mxCell id="ntL26I1QKMjrGdttYEMc-5" style="edgeStyle=orthogonalEdgeStyle;rounded=0;orthogonalLoop=1;jettySize=auto;html=1;" edge="1" parent="WIyWlLk6GJQsqaUBKTNV-1" source="ntL26I1QKMjrGdttYEMc-4">
          <mxGeometry relative="1" as="geometry">
            <mxPoint x="380" y="560" as="targetPoint" />
          </mxGeometry>
        </mxCell>
        <mxCell id="ntL26I1QKMjrGdttYEMc-4" value="Tarifa_fija = 20" style="rounded=0;whiteSpace=wrap;html=1;fillColor=#cdeb8b;strokeColor=#36393d;" vertex="1" parent="WIyWlLk6GJQsqaUBKTNV-1">
          <mxGeometry x="320" y="460" width="120" height="60" as="geometry" />
        </mxCell>
        <mxCell id="ntL26I1QKMjrGdttYEMc-13" style="edgeStyle=orthogonalEdgeStyle;rounded=0;orthogonalLoop=1;jettySize=auto;html=1;" edge="1" parent="WIyWlLk6GJQsqaUBKTNV-1" source="ntL26I1QKMjrGdttYEMc-8">
          <mxGeometry relative="1" as="geometry">
            <mxPoint x="380" y="720" as="targetPoint" />
          </mxGeometry>
        </mxCell>
        <mxCell id="ntL26I1QKMjrGdttYEMc-8" value="&lt;font style=&quot;font-size: 10px;&quot;&gt;Horas_trabajadas &amp;lt;= 40&lt;/font&gt;" style="rhombus;whiteSpace=wrap;html=1;fillColor=#cce5ff;strokeColor=#36393d;" vertex="1" parent="WIyWlLk6GJQsqaUBKTNV-1">
          <mxGeometry x="325" y="560" width="110" height="110" as="geometry" />
        </mxCell>
        <mxCell id="ntL26I1QKMjrGdttYEMc-18" style="edgeStyle=orthogonalEdgeStyle;rounded=0;orthogonalLoop=1;jettySize=auto;html=1;exitX=0.503;exitY=0.871;exitDx=0;exitDy=0;exitPerimeter=0;" edge="1" parent="WIyWlLk6GJQsqaUBKTNV-1" source="ntL26I1QKMjrGdttYEMc-11">
          <mxGeometry relative="1" as="geometry">
            <mxPoint x="380" y="820" as="targetPoint" />
            <Array as="points">
              <mxPoint x="560" y="820" />
            </Array>
          </mxGeometry>
        </mxCell>
        <mxCell id="ntL26I1QKMjrGdttYEMc-11" value="&lt;font style=&quot;font-size: 10px;&quot;&gt;Salario = (horas_normales * tarifa_fija) + (horas_suplementarias * tarifa_fija * 1.5)&lt;/font&gt;" style="shape=document;whiteSpace=wrap;html=1;boundedLbl=1;fillColor=#ffff88;strokeColor=#36393d;" vertex="1" parent="WIyWlLk6GJQsqaUBKTNV-1">
          <mxGeometry x="500" y="640" width="120" height="80" as="geometry" />
        </mxCell>
        <mxCell id="ntL26I1QKMjrGdttYEMc-17" style="edgeStyle=orthogonalEdgeStyle;rounded=0;orthogonalLoop=1;jettySize=auto;html=1;entryX=0.5;entryY=0;entryDx=0;entryDy=0;exitX=0.5;exitY=0.875;exitDx=0;exitDy=0;exitPerimeter=0;" edge="1" parent="WIyWlLk6GJQsqaUBKTNV-1" source="ntL26I1QKMjrGdttYEMc-14" target="ntL26I1QKMjrGdttYEMc-16">
          <mxGeometry relative="1" as="geometry" />
        </mxCell>
        <mxCell id="ntL26I1QKMjrGdttYEMc-14" value="&lt;font style=&quot;font-size: 10px;&quot;&gt;salario = horas_trabajadas * tarifa_fija&lt;/font&gt;" style="shape=document;whiteSpace=wrap;html=1;boundedLbl=1;fillColor=#ffff88;strokeColor=#36393d;" vertex="1" parent="WIyWlLk6GJQsqaUBKTNV-1">
          <mxGeometry x="320" y="720" width="120" height="80" as="geometry" />
        </mxCell>
        <mxCell id="ntL26I1QKMjrGdttYEMc-16" value="&lt;font style=&quot;font-size: 14px;&quot;&gt;Fin&lt;/font&gt;" style="rounded=1;whiteSpace=wrap;html=1;fillColor=#f8cecc;strokeColor=#b85450;" vertex="1" parent="WIyWlLk6GJQsqaUBKTNV-1">
          <mxGeometry x="320" y="840" width="120" height="60" as="geometry" />
        </mxCell>
        <mxCell id="ntL26I1QKMjrGdttYEMc-19" value="" style="endArrow=classic;html=1;rounded=0;entryX=0.5;entryY=0;entryDx=0;entryDy=0;" edge="1" parent="WIyWlLk6GJQsqaUBKTNV-1" target="ntL26I1QKMjrGdttYEMc-11">
          <mxGeometry width="50" height="50" relative="1" as="geometry">
            <mxPoint x="435" y="614.58" as="sourcePoint" />
            <mxPoint x="570" y="615" as="targetPoint" />
            <Array as="points">
              <mxPoint x="560" y="615" />
            </Array>
          </mxGeometry>
        </mxCell>
      </root>
    </mxGraphModel>
  </diagram>
</mxfile>
